<?xml version="1.0" encoding="UTF-8" standalone="no"?>
<svg
   xmlns:dc="http://purl.org/dc/elements/1.1/"
   xmlns:cc="http://creativecommons.org/ns#"
   xmlns:rdf="http://www.w3.org/1999/02/22-rdf-syntax-ns#"
   xmlns:svg="http://www.w3.org/2000/svg"
   xmlns="http://www.w3.org/2000/svg"
   xmlns:sodipodi="http://sodipodi.sourceforge.net/DTD/sodipodi-0.dtd"
   xmlns:inkscape="http://www.inkscape.org/namespaces/inkscape"
   version="1.1"
   x="0px"
   y="0px"
   viewBox="0 0 100 100"
   enable-background="new 0 0 100 100"
   xml:space="preserve"
   id="svg4"
   sodipodi:docname="noun_1269_purple.svg"
   inkscape:version="0.92.2 (5c3e80d, 2017-08-06)"><metadata
     id="metadata10"><rdf:RDF><cc:Work
         rdf:about=""><dc:format>image/svg+xml</dc:format><dc:type
           rdf:resource="http://purl.org/dc/dcmitype/StillImage" /><dc:title></dc:title></cc:Work></rdf:RDF></metadata><defs
     id="defs8" /><sodipodi:namedview
     pagecolor="#ffffff"
     bordercolor="#666666"
     borderopacity="1"
     objecttolerance="10"
     gridtolerance="10"
     guidetolerance="10"
     inkscape:pageopacity="0"
     inkscape:pageshadow="2"
     inkscape:window-width="1240"
     inkscape:window-height="671"
     id="namedview6"
     showgrid="false"
     inkscape:zoom="2.36"
     inkscape:cx="26.044985"
     inkscape:cy="50"
     inkscape:window-x="0"
     inkscape:window-y="22"
     inkscape:window-maximized="0"
     inkscape:current-layer="svg4" /><path
     fill-rule="evenodd"
     clip-rule="evenodd"
     d="M99.992,43.019c0.578-13.757-32.354-20.455-33.781-22.023  C65.5,20.216,67.861-0.015,50,0C32.139-0.015,34.499,20.216,33.788,20.996c-1.427,1.568-34.357,8.266-33.78,22.023  c0.576,13.758,18.051,6.692,21.778,10.741c3.26,3.544-15.279,26.229-17.353,40.634C3.757,99.089,5.077,100,9.64,100  c8.276,0,16.177-0.005,23.453-0.005c3.287,0,4.456-1.889,6.152-4.492C42.999,89.741,47.533,80.479,50,80.48  c2.466-0.001,7.001,9.261,10.755,15.022c1.696,2.604,2.864,4.492,6.151,4.492c7.275,0,15.177,0.005,23.453,0.005  c4.563,0,5.884-0.911,5.207-5.606c-2.073-14.405-20.611-37.09-17.353-40.634C81.94,49.711,99.417,56.777,99.992,43.019z"
     id="path2"
     style="fill:#9b59b6;stroke:none" /></svg>